<?xml version="1.0" encoding="UTF-8"?>
<svg width="428px" height="114px" viewBox="0 0 428 114" version="1.1" xmlns="http://www.w3.org/2000/svg" xmlns:xlink="http://www.w3.org/1999/xlink">
    <!-- Generator: Sketch 46.1 (44463) - http://www.bohemiancoding.com/sketch -->
    <title>sporting-quotes-horizontal-white</title>
    <desc>Created with Sketch.</desc>
    <defs></defs>
    <g id="Page-3" stroke="none" stroke-width="1" fill="none" fill-rule="evenodd">
        <g id="Artboard" transform="translate(-106.000000, -176.000000)">
            <g id="sporting-quotes-horizontal-white" transform="translate(106.000000, 176.000000)">
                <g id="Group-Copy-3">
                    <path d="M50.5,114 L0.0309062677,114 L0.0309062677,59.6635514 C-0.206039019,51.8504282 0.919434211,44.5109378 3.40735972,37.6448598 C5.89528523,30.7787819 9.39017579,24.7414591 13.8921362,19.5327103 C18.3940967,14.3239615 23.7845211,10.0031324 30.0635712,6.57009346 C36.3426213,3.13705449 43.1546961,0.947045234 50.5,0 L50.5,23.4392523 C41.4960791,26.5171493 35.3355941,31.0747362 32.01836,37.1121495 C28.701126,43.1495629 27.0425339,50.5482428 27.0425339,59.3084112 L50.5,59.3084112 L50.5,114 Z" id="‘’" fill="#59BA47"></path>
                    <path d="M50.5,0 L100.969094,0 L100.969094,54.3364486 C101.206039,62.1495718 100.080566,69.4890622 97.5926403,76.3551402 C95.1047148,83.2212181 91.6098242,89.2585409 87.1078638,94.4672897 C82.6059033,99.6760385 77.2154789,103.996868 70.9364288,107.429907 C64.6573787,110.862946 57.8453039,113.052955 50.5,114 L50.5,90.5607477 C59.5039209,87.4828507 65.6644059,82.9252638 68.98164,76.8878505 C72.298874,70.8504371 73.9574661,63.4517572 73.9574661,54.6915888 L50.5,54.6915888 L50.5,0 Z" id="Path" fill="#32353C"></path>
                </g>
                <g id="Group" transform="translate(141.000000, 0.000000)" fill="#FFFFFF">
                    <g id="Sporting">
                        <path d="M8.33389714,56.8422711 C4.77913651,55.9906973 2.00119858,55.0593023 0,54.0480584 L1.18491429,43.1905459 C8.13644619,46.5968413 14.2452765,48.2999635 19.5115886,48.2999635 C22.302734,48.2999635 24.4882207,47.7544322 26.0681143,46.6633532 C27.6480079,45.5722742 28.4379429,43.9622915 28.4379429,41.8333568 C28.4379429,40.2366558 28.0034786,38.9193973 27.1345371,37.8815416 C26.2655957,36.843686 25.0148653,35.9655136 23.3823086,35.2469982 C21.7497518,34.5284827 19.1429665,33.5305596 15.5618743,32.2531988 C12.1914346,31.0822847 9.40033106,29.84486 7.18848,28.5408875 C4.97662894,27.2369151 3.22560645,25.5604042 1.93536,23.5113046 C0.645113549,21.462205 0,18.9474386 0,15.9669301 C0,11.1768271 1.73785691,7.31819093 5.21362286,4.39090578 C8.68938881,1.46362062 13.665979,0 20.1435429,0 C23.1980038,0 26.2392534,0.345946692 29.2673829,1.03785046 C32.2955123,1.72975422 35.0734502,2.58131531 37.60128,3.59255927 L36.5743543,14.0508985 C33.3092408,12.6138676 30.3206536,11.5361106 27.6085029,10.8175951 C24.8963522,10.0990797 22.1974077,9.73982736 19.5115886,9.73982736 C16.5097907,9.73982736 14.2189793,10.2454418 12.6390857,11.2566857 C11.0591921,12.2679297 10.2692571,13.7315503 10.2692571,15.6475915 C10.2692571,17.1378457 10.6905558,18.3619648 11.5331657,19.3199854 C12.3757756,20.278006 13.5211813,21.0763445 14.9694171,21.7150249 C16.417653,22.3537053 18.5636429,23.1254326 21.4074514,24.0302298 C27.779689,26.0527177 32.4271397,28.3812051 35.3499429,31.0157617 C38.272746,33.6503183 39.7341257,37.2561473 39.7341257,41.8333568 C39.7341257,46.1976729 38.2332493,50.0030865 35.2314514,53.2497119 C32.2296536,56.4963372 26.5947842,58.1196255 18.3266743,58.1196255 C15.2195502,58.1196255 11.8886578,57.693845 8.33389714,56.8422711 Z" id="Sporting-Quotes"></path>
                        <path d="M76.3874743,19.2401508 C79.0732934,21.1029686 81.1007932,23.6044293 82.4700343,26.7446079 C83.8392754,29.8847865 84.5238857,33.3442534 84.5238857,37.1231125 C84.5238857,40.9019715 83.8392754,44.3614384 82.4700343,47.501617 C81.1007932,50.6417956 79.0732934,53.1432563 76.3874743,55.0060742 C73.7016551,56.868892 70.489253,57.8002869 66.7501714,57.8002869 C64.380331,57.8002869 62.3659969,57.5474797 60.7071086,57.0418578 C59.0482203,56.5362358 57.4551848,55.7245916 55.9279543,54.6069009 L55.9279543,76.3219258 L46.1326629,76.3219258 L46.1326629,17.0846152 L54.0320914,17.0846152 L55.0590171,20.7570091 C56.744237,19.3199782 58.5084251,18.2422212 60.3516343,17.5237058 C62.1948435,16.8051903 64.3276679,16.445938 66.7501714,16.445938 C70.489253,16.445938 73.7016551,17.3773329 76.3874743,19.2401508 Z M72.0427886,46.2242626 C73.6753453,43.9356579 74.4916114,40.9019715 74.4916114,37.1231125 C74.4916114,33.3442534 73.6753453,30.3105671 72.0427886,28.0219623 C70.4102318,25.7333576 68.1457516,24.5890723 65.24928,24.5890723 C61.9841665,24.5890723 59.5353682,25.7067463 57.9028114,27.9421277 C56.2702547,30.177509 55.4539886,33.2378067 55.4539886,37.1231125 C55.4539886,41.0084182 56.2702547,44.0687159 57.9028114,46.3040973 C59.5353682,48.5394787 61.9841665,49.6571526 65.24928,49.6571526 C68.1457516,49.6571526 70.4102318,48.5128674 72.0427886,46.2242626 Z" id="Combined-Shape"></path>
                        <path d="M98.42688,55.0060742 C95.372419,53.1432563 93.0289453,50.6417956 91.3963886,47.501617 C89.7638318,44.3614384 88.9475657,40.9019715 88.9475657,37.1231125 C88.9475657,33.3442534 89.7638318,29.8581752 91.3963886,26.6647733 C93.0289453,23.4713713 95.372419,20.9432993 98.42688,19.0804815 C101.481341,17.2176636 105.088711,16.2862687 109.249097,16.2862687 C113.409484,16.2862687 117.016853,17.2176636 120.071314,19.0804815 C123.125775,20.9432993 125.469249,23.4713713 127.101806,26.6647733 C128.734362,29.8581752 129.550629,33.3442534 129.550629,37.1231125 C129.550629,40.9019715 128.734362,44.3614384 127.101806,47.501617 C125.469249,50.6417956 123.125775,53.1432563 120.071314,55.0060742 C117.016853,56.868892 113.409484,57.8002869 109.249097,57.8002869 C105.088711,57.8002869 101.481341,56.868892 98.42688,55.0060742 Z M116.793051,46.2242626 C118.609929,43.9356579 119.518354,40.9019715 119.518354,37.1231125 C119.518354,33.2910301 118.609929,30.2174268 116.793051,27.9022103 C114.976174,25.5869939 112.461547,24.429403 109.249097,24.429403 C106.036647,24.429403 103.522021,25.5869939 101.705143,27.9022103 C99.8882652,30.2174268 98.97984,33.2910301 98.97984,37.1231125 C98.97984,40.9019715 99.8882652,43.9356579 101.705143,46.2242626 C103.522021,48.5128674 106.036647,49.6571526 109.249097,49.6571526 C112.461547,49.6571526 114.976174,48.5128674 116.793051,46.2242626 Z" id="Combined-Shape"></path>
                        <path d="M136.344137,17.0846152 L145.507474,17.0846152 L145.744457,21.3158517 C146.903046,19.9852675 148.390757,18.814371 150.207634,17.8031271 C152.024512,16.7918831 153.933521,16.2862687 155.93472,16.2862687 C156.566677,16.2862687 157.145963,16.3394913 157.672594,16.445938 L156.961646,26.1857653 C155.961046,25.9196485 154.828806,25.7865921 153.564891,25.7865921 C151.932335,25.7865921 150.431458,26.1724557 149.062217,26.9441945 C147.692976,27.7159333 146.718723,28.6606339 146.139429,29.7783246 L146.139429,57.0019404 L136.344137,57.0019404 L136.344137,17.0846152 Z" id="Path"></path>
                        <path d="M167.388891,54.7266529 C165.598345,52.6775533 164.703086,50.2160095 164.703086,47.3419477 L164.703086,25.2277495 L159.094491,25.2277495 L159.963429,17.0846152 L164.703086,17.0846152 L164.703086,8.30280365 L174.498377,7.26495319 L174.498377,17.0846152 L183.187749,17.0846152 L183.187749,25.2277495 L174.498377,25.2277495 L174.498377,43.2703805 C174.498377,45.3993152 174.616867,46.8762415 174.853851,47.7012036 C175.090835,48.5261658 175.591128,49.0583915 176.354743,49.2978967 C177.118358,49.5374018 178.500744,49.6571526 180.501943,49.6571526 L183.187749,49.6571526 L182.318811,57.8002869 L175.28832,57.8002869 C171.812554,57.8002869 169.179438,56.7757525 167.388891,54.7266529 Z" id="Path"></path>
                        <polygon id="Path" points="189.586286 1.11768511 199.381577 1.11768511 199.381577 11.0171818 189.586286 11.0171818"></polygon>
                        <polygon id="Path" points="189.586286 17.0846152 199.381577 17.0846152 199.381577 57.0019404 189.586286 57.0019404"></polygon>
                        <path d="M239.589669,21.3956863 C242.117498,24.695535 243.381394,29.1396195 243.381394,34.7280729 L243.381394,57.0019404 L233.586103,57.0019404 L233.586103,35.5264195 C233.586103,31.8007838 232.96732,29.0465159 231.729737,27.2635331 C230.492154,25.4805504 228.504151,24.5890723 225.765669,24.5890723 C222.763871,24.5890723 220.288741,25.7333576 218.340206,28.0219623 L218.340206,57.0019404 L208.544914,57.0019404 L208.544914,17.0846152 L217.708251,17.0846152 L217.86624,19.878828 C221.184017,17.5902232 224.712393,16.445938 228.451474,16.445938 C233.349144,16.445938 237.061839,18.0958376 239.589669,21.3956863 Z" id="Path"></path>
                        <path d="M254.440594,74.0466383 C251.122818,71.9975387 249.463954,69.2166595 249.463954,65.7039173 C249.463954,61.8718349 251.596779,58.7317034 255.862491,56.2834286 C253.545314,54.8463977 252.386743,52.9569965 252.386743,50.6151684 C252.386743,49.391031 252.742214,48.2999683 253.453166,47.3419477 C254.164118,46.3839271 255.125205,45.6121999 256.336457,45.0267429 C254.335259,43.589712 252.821217,41.7535334 251.794286,39.518152 C250.767355,37.2827706 250.253897,34.8345325 250.253897,32.1733641 C250.253897,29.246079 250.885845,26.5716449 252.14976,24.1499818 C253.413675,21.7283186 255.256856,19.8123061 257.67936,18.4018869 C260.101864,16.9914677 262.971961,16.2862687 266.289737,16.2862687 C269.765503,16.2862687 272.767256,17.1378298 275.295086,18.8409775 C276.190359,18.3619672 277.388427,17.9494923 278.889326,17.6035404 C280.390225,17.2575885 282.009591,17.0846152 283.747474,17.0846152 L286.275291,17.0846152 L285.643337,23.3117179 L282.088594,23.3117179 C281.193321,23.3117179 280.456049,23.3383292 279.876754,23.3915526 C281.456648,25.8398274 282.246583,28.7670687 282.246583,32.1733641 C282.246583,35.1006493 281.6278,37.7750833 280.390217,40.1967465 C279.152634,42.6184097 277.322618,44.5344221 274.900114,45.9448413 C272.477611,47.3552605 269.607514,48.0604596 266.289737,48.0604596 C265.078485,48.0604596 263.682934,47.8741806 262.10304,47.501617 C261.523746,47.7677339 261.234103,48.1935144 261.234103,48.7789714 C261.234103,49.4708752 261.642236,50.0164065 262.458514,50.4155818 C263.274793,50.814757 264.657179,51.1473981 266.605714,51.4135149 L273.399223,52.291696 C282.45728,53.5158335 286.98624,57.3744697 286.98624,63.8677204 C286.98624,67.9126962 285.28788,71.1326616 281.891109,73.5277131 C278.494337,75.9227646 273.794224,77.1202723 267.790629,77.1202723 C262.208338,77.1202723 257.758371,76.0957379 254.440594,74.0466383 Z M271.542857,38.4403842 C272.78044,36.9235183 273.399223,34.8345325 273.399223,32.1733641 C273.399223,29.5121958 272.78044,27.42321 271.542857,25.9063441 C270.305274,24.3894781 268.554251,23.6310565 266.289737,23.6310565 C263.97256,23.6310565 262.195206,24.3894781 260.957623,25.9063441 C259.72004,27.42321 259.101257,29.5121958 259.101257,32.1733641 C259.101257,34.8345325 259.72004,36.9235183 260.957623,38.4403842 C262.195206,39.9572501 263.97256,40.7156717 266.289737,40.7156717 C268.554251,40.7156717 270.305274,39.9572501 271.542857,38.4403842 Z M278.296869,64.5862322 C278.296869,63.095978 277.717583,61.9916097 276.558994,61.2730942 C275.400406,60.5545788 273.478231,59.9824362 270.792411,59.5566492 L262.10304,58.2792948 C259.101242,59.5034323 257.600366,61.3662221 257.600366,63.8677204 C257.600366,65.7837616 258.521956,67.2207709 260.365166,68.1787915 C262.208375,69.1368121 264.81516,69.6158152 268.1856,69.6158152 C274.926479,69.6158152 278.296869,67.9393043 278.296869,64.5862322 Z" id="Combined-Shape"></path>
                    </g>
                    <g id="Quotes" transform="translate(1.000000, 77.542857)">
                        <path d="M33.5540575,24.8405429 C32.8796842,26.8762673 31.9010352,28.6432497 30.6180811,30.1415429 L33.8254503,33.2684 L31.1608666,35.9555429 L27.8548091,32.7798286 C24.9928346,34.896982 21.5552271,35.9555429 17.5418836,35.9555429 C14.2522577,35.9555429 11.3163106,35.222693 8.73395431,33.7569714 C6.15159799,32.2912498 4.13673237,30.214842 2.68929698,27.5276857 C1.24186159,24.8405294 0.518154753,21.7218463 0.518154753,18.1715429 C0.518154753,14.6212394 1.24186159,11.5025563 2.68929698,8.8154 C4.13673237,6.12824371 6.15159799,4.0518359 8.73395431,2.58611429 C11.3163106,1.12039267 14.2522577,0.387542857 17.5418836,0.387542857 C20.8315094,0.387542857 23.7674565,1.12039267 26.3498128,2.58611429 C28.9321691,4.0518359 30.9470348,6.12824371 32.3944702,8.8154 C33.8419055,11.5025563 34.5656124,14.6212394 34.5656124,18.1715429 C34.5656124,20.5818406 34.2284308,22.8048184 33.5540575,24.8405429 Z M24.4994075,29.4575429 L20.3051555,25.4024 L22.9697391,22.7152571 L27.1639912,26.7704 C28.7430116,24.457817 29.5325099,21.59156 29.5325099,18.1715429 C29.5325099,15.6309587 29.0801932,13.3591243 28.1755461,11.3559714 C27.2708989,9.35281856 25.9139486,7.77312007 24.1046544,6.61682857 C22.2953602,5.46053708 20.1077918,4.8824 17.5418836,4.8824 C14.9759754,4.8824 12.788407,5.46053708 10.9791127,6.61682857 C9.16981851,7.77312007 7.81286819,9.35281856 6.90822108,11.3559714 C6.00357396,13.3591243 5.55125718,15.6309587 5.55125718,18.1715429 C5.55125718,20.712127 6.00357396,22.9839614 6.90822108,24.9871143 C7.81286819,26.9902672 9.16981851,28.5699656 10.9791127,29.7262571 C12.788407,30.8825486 14.9759754,31.4606857 17.5418836,31.4606857 C20.272273,31.4606857 22.5914245,30.7929781 24.4994075,29.4575429 Z" id="Combined-Shape"></path>
                        <path d="M59.1389948,11.3315429 L59.1389948,35.2715429 L55.1914635,35.2715429 L54.6980221,32.6332571 C53.9085119,33.7081197 52.9792065,34.4979689 51.9100781,35.0028286 C50.8409497,35.5076882 49.533343,35.7601143 47.9872189,35.7601143 C45.0923481,35.7601143 42.8801079,34.8888373 41.3504318,33.1462571 C39.8207558,31.403677 39.0559293,28.7735604 39.0559293,25.2558286 L39.0559293,11.3315429 L43.496902,11.3315429 L43.496902,24.0344 C43.496902,26.6401273 43.9492188,28.5943935 44.8538659,29.8972571 C45.758513,31.2001208 47.1812548,31.8515429 49.1221341,31.8515429 C50.2735032,31.8515429 51.3508395,31.6235451 52.3541754,31.1675429 C53.3575113,30.7115406 54.1387857,30.043833 54.6980221,29.1644 L54.6980221,11.3315429 L59.1389948,11.3315429 Z" id="Path"></path>
                        <path d="M69.303888,34.1234 C67.4945938,33.0322517 66.1129716,31.5421237 65.1589801,29.6529714 C64.2049886,27.7638191 63.728,25.6466974 63.728,23.3015429 C63.728,20.9563883 64.2049886,18.8392666 65.1589801,16.9501143 C66.1129716,15.060962 67.4945938,13.570834 69.303888,12.4796857 C71.1131822,11.3885374 73.251407,10.8429714 75.7186264,10.8429714 C78.1529495,10.8429714 80.2829503,11.3885374 82.1086927,12.4796857 C83.9344351,13.570834 85.3242812,15.060962 86.2782727,16.9501143 C87.2322642,18.8392666 87.7092528,20.9563883 87.7092528,23.3015429 C87.7092528,25.6466974 87.2322642,27.7638191 86.2782727,29.6529714 C85.3242812,31.5421237 83.9344351,33.0322517 82.1086927,34.1234 C80.2829503,35.2145483 78.1529495,35.7601143 75.7186264,35.7601143 C73.251407,35.7601143 71.1131822,35.2145483 69.303888,34.1234 Z M81.2204982,29.6041143 C82.5199004,28.1058211 83.1695917,26.0049849 83.1695917,23.3015429 C83.1695917,20.5981008 82.5199004,18.4972646 81.2204982,16.9989714 C79.9210959,15.5006782 78.087157,14.7515429 75.7186264,14.7515429 C73.3500957,14.7515429 71.5161568,15.5006782 70.2167546,16.9989714 C68.9173524,18.4972646 68.267661,20.5981008 68.267661,23.3015429 C68.267661,26.0049849 68.9173524,28.1058211 70.2167546,29.6041143 C71.5161568,31.1024075 73.3500957,31.8515429 75.7186264,31.8515429 C78.087157,31.8515429 79.9210959,31.1024075 81.2204982,29.6041143 Z" id="Combined-Shape"></path>
                        <path d="M95.5302992,34.0989714 C94.494067,32.9915373 93.9759587,31.6398366 93.9759587,30.0438286 L93.9759587,14.7515429 L89.8310508,14.7515429 L90.225804,11.3315429 L93.9759587,11.3315429 L93.9759587,5.41982857 L98.4169315,4.98011429 L98.4169315,11.3315429 L104.782326,11.3315429 L104.782326,14.7515429 L98.4169315,14.7515429 L98.4169315,27.3566857 C98.4169315,29.0178369 98.5156188,30.1578255 98.7129963,30.7766857 C98.9103739,31.395546 99.3297949,31.794542 99.9712719,31.9736857 C100.612749,32.1528295 101.788773,32.2424 103.499378,32.2424 L104.634293,32.2424 L104.288884,35.7601143 L100.292009,35.7601143 C98.153752,35.7601143 96.5665313,35.2064055 95.5302992,34.0989714 Z" id="Path"></path>
                        <path d="M112.899437,34.0745429 C110.94211,32.950823 109.453576,31.4281239 108.433792,29.5064 C107.414008,27.5846761 106.904124,25.4512689 106.904124,23.1061143 C106.904124,20.8586745 107.372888,18.7985522 108.310432,16.9256857 C109.247975,15.0528192 110.613149,13.570834 112.405996,12.4796857 C114.198842,11.3885374 116.312395,10.8429714 118.746718,10.8429714 C121.838966,10.8429714 124.347268,11.7386768 126.271699,13.5301143 C128.19613,15.3215518 129.158332,17.7969556 129.158332,20.9564 C129.158332,21.7706898 129.09254,22.5523963 128.960955,23.3015429 L111.443785,23.3015429 C111.739851,26.395844 112.693828,28.5943935 114.305745,29.8972571 C115.917662,31.2001208 117.990095,31.8515429 120.523107,31.8515429 C123.056119,31.8515429 125.37527,31.3792619 127.480631,30.4346857 L128.072761,33.9035429 C125.276579,35.1412633 122.579126,35.7601143 119.980321,35.7601143 C117.217036,35.7601143 114.856764,35.1982628 112.899437,34.0745429 Z M124.569326,20.2724 C124.569326,18.5461057 124.07589,17.1944049 123.089002,16.2172571 C122.102114,15.2401094 120.621805,14.7515429 118.648029,14.7515429 C116.740046,14.7515429 115.243289,15.2156811 114.157713,16.1439714 C113.072136,17.0722618 112.299086,18.4483909 111.838538,20.2724 L124.569326,20.2724 Z" id="Combined-Shape"></path>
                        <path d="M135.499054,35.1005429 C134.068067,34.6608264 132.974282,34.1804026 132.217668,33.6592571 L132.760454,29.4086857 C133.418379,29.9949744 134.429924,30.5486831 135.795119,31.0698286 C137.160313,31.590974 138.665295,31.8515429 140.310108,31.8515429 C141.856232,31.8515429 143.048703,31.590974 143.887558,31.0698286 C144.726412,30.5486831 145.145833,29.8158333 145.145833,28.8712571 C145.145833,27.763823 144.685293,26.9251171 143.764197,26.3551143 C142.843102,25.7851114 141.69175,25.3046877 140.310108,24.9138286 C138.79688,24.5229695 137.522169,24.1076879 136.485937,23.6679714 C135.449704,23.2282549 134.561519,22.5524046 133.821353,21.6404 C133.081187,20.7283954 132.71111,19.5232646 132.71111,18.0249714 C132.71111,15.9729612 133.451265,14.2629783 134.931596,12.8949714 C136.411928,11.5269646 138.698184,10.8429714 141.790432,10.8429714 C143.204971,10.8429714 144.405666,10.9813986 145.392554,11.2582571 C146.379442,11.5351157 147.366315,11.9178261 148.353203,12.4064 L147.810417,16.4126857 C147.020907,15.7612539 146.149169,15.248259 145.195178,14.8736857 C144.241186,14.4991124 143.139178,14.3118286 141.88912,14.3118286 C140.441685,14.3118286 139.298557,14.5805402 138.459702,15.1179714 C137.620848,15.6554027 137.201427,16.4615375 137.201427,17.5364 C137.201427,18.252975 137.398801,18.8311121 137.793556,19.2708286 C138.188311,19.7105451 138.747539,20.07697 139.471257,20.3701143 C140.194975,20.6632586 141.313431,21.0378263 142.826659,21.4938286 C144.701746,22.0475456 146.321862,22.8292521 147.687057,23.8389714 C149.052251,24.8486908 149.734839,26.4446748 149.734839,28.6269714 C149.734839,30.5812669 149.035804,32.2586787 147.637713,33.6592571 C146.239622,35.0598356 143.862903,35.7601143 140.507484,35.7601143 C138.599501,35.7601143 136.930041,35.5402593 135.499054,35.1005429 Z" id="Path"></path>
                    </g>
                </g>
            </g>
        </g>
    </g>
</svg>